<svg width="244" height="313" viewBox="0 0 244 313" fill="none" xmlns="http://www.w3.org/2000/svg">
<path fill-rule="evenodd" clip-rule="evenodd" d="M96.9144 294.355C51.9674 241.198 0 179.739 0 122.727C0 52.8489 56.3077 0 123.173 0C190.038 0 244 54.6106 244 122.727C244 174.29 201.987 226.415 160.959 277.317C153.507 286.562 146.088 295.767 138.959 304.921C130.84 315.344 114.96 315.775 106.457 305.662C103.327 301.939 100.139 298.169 96.9144 294.355ZM121.573 188.545C158.561 188.545 188.545 158.561 188.545 121.573C188.545 84.5857 158.561 54.6013 121.573 54.6013C84.5857 54.6013 54.6013 84.5857 54.6013 121.573C54.6013 158.561 84.5857 188.545 121.573 188.545Z" fill="white"/>
</svg>
