<svg width="330" height="387" viewBox="0 0 330 387" fill="none" xmlns="http://www.w3.org/2000/svg">
<g filter="url(#filter0_d_1515:210)">
<path d="M13.0752 273.326L143.231 21.3936C150.685 6.96681 171.315 6.96683 178.769 21.3936L308.925 273.326C315.802 286.638 306.139 302.506 291.156 302.506H235.333C224.288 302.506 215.333 311.461 215.333 322.506V349C215.333 360.046 206.379 369 195.333 369H161H126.667C115.621 369 106.667 360.046 106.667 349V322.506C106.667 311.461 97.7124 302.506 86.6667 302.506H30.844C15.8606 302.506 6.19794 286.638 13.0752 273.326Z" fill="white"/>
<path d="M13.0752 273.326L143.231 21.3936C150.685 6.96681 171.315 6.96683 178.769 21.3936L308.925 273.326C315.802 286.638 306.139 302.506 291.156 302.506H235.333C224.288 302.506 215.333 311.461 215.333 322.506V349C215.333 360.046 206.379 369 195.333 369H161H126.667C115.621 369 106.667 360.046 106.667 349V322.506C106.667 311.461 97.7124 302.506 86.6667 302.506H30.844C15.8606 302.506 6.19794 286.638 13.0752 273.326Z" stroke="#212224" stroke-width="20"/>
</g>
<defs>
<filter id="filter0_d_1515:210" x="0.803955" y="0.573486" width="328.392" height="386.427" filterUnits="userSpaceOnUse" color-interpolation-filters="sRGB">
<feFlood flood-opacity="0" result="BackgroundImageFix"/>
<feColorMatrix in="SourceAlpha" type="matrix" values="0 0 0 0 0 0 0 0 0 0 0 0 0 0 0 0 0 0 127 0" result="hardAlpha"/>
<feOffset dx="4" dy="4"/>
<feGaussianBlur stdDeviation="2"/>
<feComposite in2="hardAlpha" operator="out"/>
<feColorMatrix type="matrix" values="0 0 0 0 0 0 0 0 0 0 0 0 0 0 0 0 0 0 0.25 0"/>
<feBlend mode="normal" in2="BackgroundImageFix" result="effect1_dropShadow_1515:210"/>
<feBlend mode="normal" in="SourceGraphic" in2="effect1_dropShadow_1515:210" result="shape"/>
</filter>
</defs>
</svg>
